<svg xmlns="http://www.w3.org/2000/svg" viewBox="0 0 640 287.81"><defs><style>.cls-1{fill:#2c403a;}</style></defs><g id="Layer_2" data-name="Layer 2"><g id="Layer_1-2" data-name="Layer 1"><path class="cls-1" d="M195.07,114.88c17.47-10.16,29-27.87,29-49,0-19-8.61-34.65-25.82-47.15S160.65,0,137.18,0C86.06,0,49.55,21.88,29.73,48.45c-13.82,18-20.08,36.73-20.08,54.18,0,26.31,13,49,36.77,57.57,10.43,3.39,14.87-9.37,5-13.28C33.9,139.63,24,123,24,102.9c0-22.67,13-49.5,39.9-68.78C81.37,21.62,108,13.29,138,13.29a98.06,98.06,0,0,1,30.25,4.94c-4.17,3.13-8.61,8.6-12.78,14.07-2.09,3.13-6,10.42-7.82,13.81l-3.91,7.81c-1.83,3.65-2.87,6.25-3.66,7.56-.52,1.3-1.82,4.16-3.65,8.33-1.82,3.91-2.87,6.51-3.39,7.56l-8.86,19.27v-.26c-3.65,7.56-6.52,14.07-8.87,19.54l.26-.26c-5.22,11.2-9.65,20.06-13,26.57a146.56,146.56,0,0,1-13.56,20.84A71.58,71.58,0,0,1,71.2,180c-20.08-9.9-35.73-14.85-46.42-14.85C11.21,165.15,0,173.49,0,182.87c0,16.67,25,20.84,35.47,20.84q21.51-.39,36.77-7.82c21.12,10.16,39.12,15.11,54,15.11,21.13,0,39.64-7,55.29-21.36,15.91-14.33,23.73-30,23.73-47.15C205.24,131.81,195.07,114.88,195.07,114.88ZM35.47,189.64c-14.35,0-21.65-2.34-21.65-6.77,0-2.35,3.65-3.91,11.22-4.17,6.78,0,12.25,1.82,17.73,3.13,1.3.26,4.95,2.08,6,2.34A42.75,42.75,0,0,0,55,187,71.89,71.89,0,0,1,35.47,189.64ZM171.34,180c-12.78,11.2-27.9,16.67-45.9,16.67-11.74,0-24.77-3.12-39.64-9.64,11.48-9.37,23-26.83,29.21-39.33q5.08-9.76,13.3-27.35l17.47-38c.52-1.83,1.57-3.39,2.35-5.73C161.43,46.37,170.56,27.87,181,23.7c17.73,10.16,28.43,25.79,28.43,42.21,0,17.45-10.18,32-25.56,39.59a55.42,55.42,0,0,0-27.12-7c-10.7,0-20.09,5.73-20.09,14.32,0,7,8.87,13.55,20.09,13.55a74,74,0,0,0,25.55-4.43c5.48,5,8.09,11.72,8.09,20.58C190.38,156.3,184.12,168.8,171.34,180Zm-.52-66.68A29.23,29.23,0,0,1,157,115.66a20.89,20.89,0,0,1-5.48-1.3c-2.35-.78-3.13-1.57-2.35-2.35,2.09-1.82,5.48-2.34,10.43-1.82C164.56,110.45,168.47,111.49,170.82,113.32Z"/><path class="cls-1" d="M319.73,135.2a33.34,33.34,0,0,0,3.91-14.85c0-12.77-8.61-19.8-22.95-19.8-13.3,0-24.52,9.38-33.64,28.39L247.49,170.1c-.19.42-.36.83-.53,1.24a76.78,76.78,0,0,1-6.51,11c-4.17,6-8.87,8.59-14.34,8.59-9.91,0-7.57-9.12-5-15.37L277.48,53.4c5.48-11.2-8.34-14.85-12.78-5.47L208.37,169.84A36,36,0,0,0,204.46,185c0,13,7.3,19.54,21.65,19.54q11.31,0,20.3-9.34c3.55,6.08,10.63,9.34,20.38,9.34,13.3,0,24.51-9.38,33.64-28.4Zm-52.94,55.74c-6,0-8.87-2.08-8.87-6.25a19.42,19.42,0,0,1,2.35-8.6L279,136a104.59,104.59,0,0,1,7-12.77c4.18-6.25,9.13-9.11,14.61-9.11,8.61,0,10.95,5,6.52,14.84l-18.78,40.64C281.65,183.91,274.35,190.94,266.79,190.94Z"/><path class="cls-1" d="M640,107.06c-.26-3.38-2.34-5.21-6-5.21h-3.65q-5.09,0-3.13-4.69l7.31-15.37c5.47-11.2-8.35-14.84-12.78-5.47l-9.91,20.84c-1.31,3.13-3.65,4.69-7.31,4.69h-1a8.35,8.35,0,0,0-3.65.78c-3.39,1.31-5.22,3.91-4.95,7.56.26,3.39,2.34,5.21,6.25,5.21,1.83,0,2.35,1.56,1,4.69l-22.52,48.77a12.48,12.48,0,0,0-.95,1.5c-2.87,5.21-2.87,6-7,12s-8.87,8.59-14.35,8.59c-9.91,0-7.56-9.12-4.95-15.37L608.68,53.4c5.48-11.2-8.35-14.85-12.78-5.47L539.57,169.84h0c-5.48,10.15-17.74,21.09-31.29,21.09-10.44-.26-15.65-4.69-15.65-13,0-3.13,1.3-8.34,4.17-15.37q2-4.7,7-3.13a35.87,35.87,0,0,0,7.57,1c16.69,0,28.94-10.42,36.77-31a32.94,32.94,0,0,0,2.08-11.21c0-11.2-7.3-17.71-20.08-17.71s-23.73,9.38-32.6,28.39l-14.08,29.7c-3.91,8.08-5.74,15.11-5.74,20.58,0,16.41,12.52,25.27,30.52,25.27a43.85,43.85,0,0,0,25.81-8.6c1-.76,2-1.53,3-2.32,2.74,7.28,9.53,10.92,20.24,10.92q11.22,0,20.14-9.18c3.62,6.67,11.13,10.09,21.33,9.18q11.34-1.17,20.34-10.16a62.82,62.82,0,0,0,13.56-19c1.56-4.17.26-7-3.65-8.33-3.91-1.57-6.78-.52-8.87,3.38-2.87,5.21-2.87,6-7,12s-8.87,8.59-14.34,8.59c-8.61,0-10.43-7.29-7-15.37l25-55.48a7.38,7.38,0,0,1,7.3-4.69h7.57l3.39-.52C638.67,113.58,640.23,111,640,107.06Zm-132,32.3,3.39-7.55c5.47-12.76,11.73-18.76,18.77-17.71,5.48.78,6.52,5.47,2.87,14.06-4.95,12-11.73,18-19.82,18C508,146.14,506.19,143.79,508,139.36Z"/><path class="cls-1" d="M483.5,115.4h10.43a8.39,8.39,0,0,0,3.66-.78c3.65-1.31,5.21-3.91,5-7.56-.26-3.38-2.35-5.21-6.26-5.21H490c-3.39,0-4.17-1.56-2.87-4.69L496.58,77c6.52-13.8,14-20.84,21.8-20.84s8.34-13.54,0-13.54c-18.52,0-30.52,20.22-34.43,29.34L472,97.16c-1.31,3.13-3.91,4.69-7.57,4.69h-3.65a17.75,17.75,0,0,0-3.65.52c-3.65,1.57-5.47,4.17-5.21,7.56,0,3.38,1.82,5.21,5.73,5.47h.53q5.09,0,3.13,4.69l-23.87,51.56c-6.58,12.93-13.41,19.29-20.73,19.29-4.95,0-7.56-2.08-7.56-6a21.33,21.33,0,0,1,2.61-9.38l18.77-40.37a33.21,33.21,0,0,0,3.91-14.85c0-12.51-7.82-19.8-21.12-19.8-7.56,0-14.6,3.39-21.38,10.16-3.13-6.77-9.13-10.16-18.26-10.16-5.22,0-11.47,3.13-13.82,6.25-.52-3.38-2.35-5.21-5.74-5.21a7.06,7.06,0,0,0-7,4.69L317.64,170.1c-6.52,13.81-13.56,20.84-21.38,20.84s-8.35,13.55,0,13.55c18.51,0,30.51-19.8,34.42-28.92l19.82-43.76c3.39-8.08,12.26-17.71,21.65-17.71,5,0,7.56,2.08,7.56,6.25,0,2.34-.78,5.21-2.35,9.12l-30,64.08a7.11,7.11,0,0,0-1,3.64c0,3.13,1.82,4.95,5.21,5.21,4.44.52,7.83-1.56,10.17-6.51l28.69-62c5-10.16,13.56-19.79,23-19.79q7,0,7,6.25c0,1.82-.78,4.69-2.34,8.59l-19,40.9A36,36,0,0,0,395.1,185c0,13,7.3,19.54,21.64,19.54q11.34,0,20.34-9.38c6-6.25,10.7-12.76,13.56-19.8l25.56-55.22A7.37,7.37,0,0,1,483.5,115.4Z"/><path class="cls-1" d="M58.45,287.45H50.26v-21h8.19c6.6,0,11.16,4.53,11.16,10.44V277C69.61,282.86,65.05,287.45,58.45,287.45ZM64.78,277a6,6,0,0,0-6.33-6.33H54.88v12.66h3.57A6,6,0,0,0,64.78,277Z"/><path class="cls-1" d="M75.43,287.45v-21h4.62v21Z"/><path class="cls-1" d="M101.53,287.45,91.36,274.1v13.35H86.8v-21h4.26l9.84,12.93V266.45h4.56v21Z"/><path class="cls-1" d="M122.5,287.45v-21h15.84v4.11H127.09v4.26H137v4.11h-9.9v4.41h11.4v4.11Z"/><path class="cls-1" d="M148.87,287.75A8.59,8.59,0,0,1,142,284.6l2.91-3.24a5.18,5.18,0,0,0,3.84,2.1c1.74,0,2.82-1,2.82-3.48V266.45h4.74v13.74C156.31,285.29,153.31,287.75,148.87,287.75Z"/><path class="cls-1" d="M162.52,287.45v-21h15.84v4.11H167.11v4.26H177v4.11h-9.9v4.41h11.4v4.11Z"/><path class="cls-1" d="M198.85,287.45,188.68,274.1v13.35h-4.56v-21h4.26l9.84,12.93V266.45h4.56v21Z"/><path class="cls-1" d="M217.51,287.45h-8.19v-21h8.19c6.6,0,11.16,4.53,11.16,10.44V277C228.67,282.86,224.11,287.45,217.51,287.45Zm6.33-10.5a6,6,0,0,0-6.33-6.33h-3.57v12.66h3.57a6,6,0,0,0,6.33-6.27Z"/><path class="cls-1" d="M244.48,287.81A10.76,10.76,0,0,1,233.35,277V277a11.17,11.17,0,0,1,22.32-.06V277A10.86,10.86,0,0,1,244.48,287.81ZM250.84,277a6.38,6.38,0,0,0-6.36-6.6,6.28,6.28,0,0,0-6.3,6.54V277a6.38,6.38,0,0,0,6.36,6.6,6.28,6.28,0,0,0,6.3-6.54Z"/><path class="cls-1" d="M277.69,287.45V273.74l-5.91,9h-.12l-5.85-8.88v13.62h-4.53v-21h5l5.52,8.88,5.52-8.88h5v21Z"/><path class="cls-1" d="M296.29,287.75a13.36,13.36,0,0,1-8.91-3.36l2.73-3.27a9.63,9.63,0,0,0,6.27,2.55c1.89,0,3-.75,3-2v-.06c0-1.17-.72-1.77-4.23-2.67-4.23-1.08-7-2.25-7-6.42v-.06c0-3.81,3.06-6.33,7.35-6.33a12.16,12.16,0,0,1,7.8,2.67L301,272.3a9.85,9.85,0,0,0-5.46-2.07c-1.77,0-2.7.81-2.7,1.83v.06c0,1.38.9,1.83,4.53,2.76,4.26,1.11,6.66,2.64,6.66,6.3v.06C304,285.41,300.82,287.75,296.29,287.75Z"/><path class="cls-1" d="M324.7,287.45l-1.92-4.71H313.9L312,287.45h-4.71l9-21.15h4.26l9,21.15Zm-6.36-15.6-2.79,6.81h5.58Z"/><path class="cls-1" d="M342.46,287.45h-8.19v-21h8.19c6.6,0,11.16,4.53,11.16,10.44V277C353.62,282.86,349.06,287.45,342.46,287.45Zm6.33-10.5a6,6,0,0,0-6.33-6.33h-3.57v12.66h3.57a6,6,0,0,0,6.33-6.27Z"/><path class="cls-1" d="M375.64,287.45V273.74l-5.91,9h-.12l-5.85-8.88v13.62h-4.53v-21h5l5.52,8.88,5.52-8.88h5v21Z"/><path class="cls-1" d="M387,287.45v-21h4.62v21Z"/><path class="cls-1" d="M413.08,287.45,402.91,274.1v13.35h-4.56v-21h4.26l9.84,12.93V266.45H417v21Z"/><path class="cls-1" d="M423.76,287.45v-21h4.62v21Z"/><path class="cls-1" d="M442.6,287.75a13.36,13.36,0,0,1-8.91-3.36l2.73-3.27a9.63,9.63,0,0,0,6.27,2.55c1.89,0,3-.75,3-2v-.06c0-1.17-.72-1.77-4.23-2.67-4.23-1.08-7-2.25-7-6.42v-.06c0-3.81,3.06-6.33,7.35-6.33a12.16,12.16,0,0,1,7.8,2.67l-2.4,3.48a9.85,9.85,0,0,0-5.46-2.07c-1.77,0-2.7.81-2.7,1.83v.06c0,1.38.9,1.83,4.53,2.76,4.26,1.11,6.66,2.64,6.66,6.3v.06C450.31,285.41,447.13,287.75,442.6,287.75Z"/><path class="cls-1" d="M464.89,270.71v16.74h-4.62V270.71h-6.39v-4.26h17.4v4.26Z"/><path class="cls-1" d="M489.07,287.45l-4.5-6.72h-3.63v6.72h-4.62v-21h9.6c4.95,0,7.92,2.61,7.92,6.93v.06a6.52,6.52,0,0,1-4.5,6.51l5.13,7.5Zm.09-13.83c0-2-1.38-3-3.63-3h-4.59v6h4.68c2.25,0,3.54-1.2,3.54-3Z"/><path class="cls-1" d="M515.14,287.45l-1.92-4.71h-8.88l-1.92,4.71h-4.71l9-21.15H511l9,21.15Zm-6.36-15.6L506,278.66h5.58Z"/><path class="cls-1" d="M531.52,270.71v16.74H526.9V270.71h-6.39v-4.26h17.4v4.26Z"/><path class="cls-1" d="M552.25,287.81A10.76,10.76,0,0,1,541.12,277V277a11.17,11.17,0,0,1,22.32-.06V277A10.86,10.86,0,0,1,552.25,287.81ZM558.61,277a6.38,6.38,0,0,0-6.36-6.6,6.28,6.28,0,0,0-6.3,6.54V277a6.38,6.38,0,0,0,6.36,6.6,6.28,6.28,0,0,0,6.3-6.54Z"/><path class="cls-1" d="M581.8,287.45l-4.5-6.72h-3.63v6.72h-4.62v-21h9.6c5,0,7.92,2.61,7.92,6.93v.06a6.52,6.52,0,0,1-4.5,6.51l5.13,7.5Zm.09-13.83c0-2-1.38-3-3.63-3h-4.59v6h4.68c2.25,0,3.54-1.2,3.54-3Z"/></g></g></svg>